<svg width="554" height="190" viewBox="0 0 554 190" fill="none" xmlns="http://www.w3.org/2000/svg">
<path d="M103.941 19.5C67.3036 2.3 18.584 0.3333 0 0V190H529.762C542.503 190 555.244 179.5 553.903 176C551.891 170.5 545.821 173.7 503.609 174.5C450.844 175.5 405.197 169 350.441 161.5C295.684 154 234.954 131.5 197.123 90C159.291 48.5 149.737 41 103.941 19.5Z" fill="#229E60"/>
<path opacity="0.3" d="M133.891 144.234C30.0771 124.117 31.6941 117.244 0 104V104.503V190L554 189.497V119.088C494.493 125.29 359.954 139.607 309.503 147.251C259.051 154.896 155.227 148.76 133.891 144.234Z" fill="#B1DF7D"/>
</svg>
